<?xml version="1.0" standalone="no"?><!DOCTYPE svg PUBLIC "-//W3C//DTD SVG 1.1//EN" "http://www.w3.org/Graphics/SVG/1.1/DTD/svg11.dtd"><svg t="1757927427294" class="icon" viewBox="0 0 1024 1024" version="1.1" xmlns="http://www.w3.org/2000/svg" p-id="17596" xmlns:xlink="http://www.w3.org/1999/xlink" width="16" height="16"><path d="M779.18208 527.72864l-198.08256-73.15456-72.9088-198.2464a61.15328 61.15328 0 0 0-114.76992 0l-73.44128 198.2464-198.20544 72.9088a61.11232 61.11232 0 0 0 0 114.76992l198.2464 73.44128 72.9088 198.20544a61.11232 61.11232 0 0 0 114.76992 0l73.40032-198.2464 198.2464-72.9088a61.15328 61.15328 0 0 0 0-114.76992l-0.16384-0.24576z m-232.6528 135.04512a30.72 30.72 0 0 0-18.18624 18.18624l-77.824 210.78016-77.6192-210.61632a30.72 30.72 0 0 0-18.35008-18.35008l-210.61632-77.66016 210.61632-77.66016a30.72 30.72 0 0 0 18.35008-18.35008L450.56 278.528l77.66016 210.61632a30.76096 30.76096 0 0 0 18.18624 18.2272l210.78016 77.824-210.61632 77.6192zM573.44 185.7536a30.72 30.72 0 0 1 30.72-30.72h61.44v-61.44a30.72 30.72 0 1 1 61.44 0v61.44h61.44a30.72 30.72 0 1 1 0 61.44h-61.44v61.44a30.72 30.72 0 1 1-61.44 0v-61.44h-61.44a30.72 30.72 0 0 1-30.72-30.72z m399.36 184.32a30.72 30.72 0 0 1-30.72 30.72h-30.72v30.72a30.72 30.72 0 0 1-61.44 0v-30.72h-30.72a30.72 30.72 0 1 1 0-61.44h30.72v-30.72a30.72 30.72 0 1 1 61.44 0v30.72h30.72a30.72 30.72 0 0 1 30.72 30.72z" fill="#ffffff" p-id="17597"></path></svg>
